<svg width="174" height="32" viewBox="0 0 174 32" fill="none" xmlns="http://www.w3.org/2000/svg">
<path d="M100.241 31.1411L113.546 1.03267C113.756 0.575788 113.509 0.182871 112.997 0.182871H103.677C103.404 0.19837 103.14 0.286053 102.912 0.436961C102.684 0.58787 102.5 0.796594 102.379 1.04181L89.2396 31.1411C89.0477 31.6071 89.2944 31.9909 89.797 31.9909H98.9437C99.4554 31.9909 100.04 31.6071 100.241 31.1411ZM147.949 23.036L168.6 0.192009H144.449L138.985 8.99152H148.46L127.471 32H153.029L162.551 23.036H147.949ZM59.5698 0.182871H43.579C43.1049 0.210343 42.6465 0.362553 42.2502 0.624098C41.8539 0.885644 41.5337 1.24724 41.322 1.6723L28.7395 30.5106C28.374 31.333 28.8217 32 29.7172 32H37.6395C38.535 32 39.5584 31.333 39.9057 30.5197L43.4967 22.3416H47.2157C48.3762 22.2685 48.8696 22.6979 48.23 24.0412L45.4704 30.5106C45.1232 31.333 45.5618 32 46.4573 32H54.3796C54.8555 31.975 55.3162 31.8239 55.7144 31.5622C56.1126 31.3005 56.4341 30.9375 56.6457 30.5106L60.246 22.1862C61.379 19.4815 59.7434 17.389 57.3676 17.2793C59.4693 16.5209 61.4064 14.4284 62.2745 12.5278L64.1386 8.14172C66.3864 3.04294 64.7873 0.118908 59.5698 0.192009M54.9096 9.28392L52.9359 13.6243C52.479 14.666 51.8211 14.7482 51.1632 14.7208H46.7132L49.692 7.95897H53.9593C55.001 8.02293 55.266 8.39758 54.9096 9.28392ZM90.6925 0.173733H73.7513C73.412 0.191415 73.0835 0.298861 72.7994 0.48509C72.5152 0.67132 72.2856 0.929655 72.134 1.2337L59.1677 30.9309C58.921 31.5157 59.2225 31.9817 59.8622 31.9817H78.0003C83.7479 31.8995 87.0465 30.6294 89.669 24.5437L91.5331 20.4866C92.9951 17.0143 91.5605 15.5066 88.8192 15.068C91.1036 14.3644 92.8215 12.2171 93.5617 10.3256L95.0785 7.10917C96.9426 2.8145 95.3892 0.118908 90.6833 0.173733M82.3772 20.0937L81.2259 22.4055C80.6502 24.0137 79.6451 24.4523 78.2288 24.4706H72.9289L75.4692 18.4855H80.769C82.2676 18.5951 82.8524 18.9606 82.3772 20.0937ZM85.42 9.43926L84.6251 11.2668L84.5063 11.5044C84.3743 11.8856 84.1199 12.2124 83.7827 12.4339C83.4455 12.6554 83.0445 12.7591 82.6422 12.7288H78.046L80.1477 7.88587H84.8352C85.6759 7.9407 85.813 8.48895 85.42 9.43926ZM116.479 0.182871L112.54 8.99152H118.16C118.544 8.99152 118.727 9.26565 118.571 9.62201L108.748 31.3695C108.584 31.7167 108.776 32 109.16 32H119.165C119.549 32 119.988 31.7167 120.143 31.3604L129.573 9.62201C129.663 9.43917 129.801 9.28359 129.971 9.17121C130.141 9.05882 130.338 8.99366 130.542 8.98238H136.307L141.735 0.182871H116.479ZM33.4636 11.0201L34.7064 8.3062C37.2101 2.58606 35.5562 0.128045 30.6401 0.192009H18.8069C13.9366 0.128045 9.87949 2.86933 7.63164 7.96811L3.9766 18.2936H0.522583L7.12907 27.2119L18.0485 18.2936H15.2707L18.478 10.8465C18.9988 9.62201 19.8943 9.03721 20.8538 8.99152H22.7178C23.1564 9.0098 23.458 9.14686 23.6316 9.33875L29.4248 4.46841L33.4636 11.0201Z" fill="#191825" fill-opacity="0.5"/>
<path d="M6.88244 29.8344L2.02124 23.6756L1.76538 24.2239C-0.491603 29.3592 -0.116961 31.9177 4.75338 31.9908H16.4312C21.265 31.9177 25.4957 29.3592 27.7619 24.2239L31.2341 16.265H34.3409L29.0411 7.33759L18.2131 16.265H21.1828L18.9898 21.3364C18.4598 22.4146 17.6557 22.9994 16.7967 23.036H15.2433L6.88244 29.8344Z" fill="#191825" fill-opacity="0.5"/>
<path d="M172.447 0.000121574C172.876 0.000121574 173.242 0.155461 173.543 0.457002C173.845 0.758543 174 1.12405 174 1.55351C174 1.97384 173.845 2.33935 173.543 2.65003C173.242 2.96071 172.876 3.10691 172.447 3.10691C172.242 3.11005 172.04 3.07111 171.851 2.99251C171.662 2.91391 171.492 2.79733 171.35 2.65003C171.049 2.33935 170.893 1.97384 170.893 1.55351C170.893 1.13318 171.049 0.749405 171.35 0.457002C171.492 0.310133 171.663 0.193842 171.851 0.115274C172.04 0.0367063 172.242 -0.00248031 172.447 0.000121574ZM172.447 2.8145C172.614 2.81829 172.781 2.78783 172.937 2.72499C173.092 2.66214 173.233 2.56823 173.351 2.449C173.471 2.33132 173.565 2.19028 173.628 2.03467C173.691 1.87905 173.721 1.71216 173.717 1.54438C173.72 1.37812 173.689 1.21297 173.626 1.05902C173.563 0.905057 173.47 0.765513 173.351 0.648891C173.234 0.52922 173.093 0.435021 172.937 0.372144C172.781 0.309268 172.614 0.279057 172.447 0.283387C172.28 0.279772 172.115 0.310346 171.961 0.373218C171.807 0.436089 171.668 0.529918 171.551 0.648891C171.304 0.895607 171.186 1.19715 171.186 1.54438C171.186 1.89161 171.304 2.20228 171.551 2.449C171.798 2.69571 172.099 2.8145 172.447 2.8145ZM173.242 2.3759H172.876L172.419 1.71799H172.227V2.3759H171.898V0.703717H172.419C172.602 0.703717 172.748 0.749405 172.858 0.831644C172.968 0.92302 173.032 1.04181 173.032 1.19715C173.032 1.39818 172.922 1.55351 172.712 1.63575L173.242 2.3759ZM172.237 1.44386H172.41C172.62 1.44386 172.721 1.36162 172.721 1.20629C172.721 1.05095 172.629 0.977845 172.419 0.977845H172.237V1.44386Z" fill="#191825" fill-opacity="0.5"/>
</svg>
