<svg width="189" height="32" viewBox="0 0 189 32" fill="none" xmlns="http://www.w3.org/2000/svg">
<mask id="mask0_17_161" style="mask-type:luminance" maskUnits="userSpaceOnUse" x="0" y="0" width="189" height="32">
<path d="M188.696 0H0.0927734V32H188.696V0Z" fill="white"/>
</mask>
<g mask="url(#mask0_17_161)">
<mask id="mask1_17_161" style="mask-type:luminance" maskUnits="userSpaceOnUse" x="0" y="0" width="189" height="32">
<path d="M188.696 0H0.0927734V32H188.696V0Z" fill="white"/>
</mask>
<g mask="url(#mask1_17_161)">
<path d="M8.68677 21.1737L4.67525 21.17V16.3813C4.67525 15.3535 5.07309 14.8268 5.94612 14.7015H8.6794C10.6281 14.7015 11.8879 15.9319 11.8952 17.921C11.8952 19.9655 10.6649 21.1737 8.68677 21.1737ZM4.67525 8.25142V6.9916C4.67525 5.88651 5.1394 5.36343 6.16714 5.29712H8.21894C9.97605 5.29712 11.0296 6.35065 11.0296 8.11144C11.0296 9.45598 10.3076 11.0215 8.28156 11.0215H4.67525V8.25142ZM13.7997 13.0328L13.0777 12.6239L13.7076 12.0824C14.448 11.4525 15.6747 10.0269 15.6747 7.56994C15.6747 3.80892 12.7609 1.38507 8.24841 1.38507H2.51663C1.17945 1.43296 0.107508 2.52701 0.0927734 3.86418V25.2H8.35524C13.3724 25.2 16.6066 22.4704 16.6066 18.2415C16.6066 15.9724 15.5568 14.0237 13.7997 13.0328Z" fill="#191825" fill-opacity="0.5"/>
</g>
<mask id="mask2_17_161" style="mask-type:luminance" maskUnits="userSpaceOnUse" x="0" y="0" width="189" height="32">
<path d="M188.696 0H0.0927734V32H188.696V0Z" fill="white"/>
</mask>
<g mask="url(#mask2_17_161)">
<path d="M182.924 7.68782C180.869 7.69151 178.92 8.63821 177.638 10.2517L177.281 10.7011L177.001 10.1964C176.087 8.53139 174.522 7.69151 172.334 7.69151C170.046 7.69151 168.51 8.96606 167.795 9.72858L167.331 10.2332L167.151 9.5665C166.893 8.60874 166.038 8.08198 164.749 8.08198H162.679L162.657 25.2847H167.357V17.689C167.357 17.0222 167.438 16.3665 167.604 15.6777C168.053 13.8432 169.287 11.8688 171.361 12.064C172.636 12.1893 173.262 13.1765 173.262 15.0809V25.281H177.995V17.6853C177.995 16.8528 178.073 16.2266 178.261 15.6077C178.636 13.8543 179.929 12.0567 181.93 12.0567C183.377 12.0567 183.915 12.8744 183.915 15.0809V22.7651C183.915 24.5001 184.689 25.281 186.427 25.281H188.637L188.641 14.3C188.656 9.90908 186.722 7.68782 182.924 7.68782ZM140.146 19.3098C140.131 19.3245 138.109 21.4611 135.445 21.4611C133.018 21.4611 130.568 19.9729 130.568 16.6502C130.568 13.7806 132.469 11.773 135.191 11.773C136.075 11.773 137.077 12.0898 137.236 12.6203L137.258 12.7087C137.464 13.4638 138.153 13.9832 138.93 13.9795L141.505 13.9832V11.7288C141.505 8.75609 137.729 7.68414 135.184 7.68414C129.747 7.68414 125.805 11.4673 125.805 16.6797C125.805 21.8884 129.706 25.6715 135.084 25.6715C139.752 25.6715 142.286 22.603 142.312 22.5772L142.444 22.4114L140.404 19.0261L140.146 19.3098Z" fill="#191825" fill-opacity="0.5"/>
</g>
</g>
</svg>
