<svg width="114" height="32" viewBox="0 0 114 32" fill="none" xmlns="http://www.w3.org/2000/svg">
<path d="M54.7708 25.0368H51.2558C51.2336 25.0368 51.2336 25.0368 51.2225 25.0257L48.1969 21.3327L45.1714 25.0257C45.1602 25.0368 45.1491 25.0368 45.138 25.0368H42.3238C42.3015 25.0368 42.2904 25.0257 42.2793 25.0145C42.2793 25.0034 42.2793 24.9812 42.2904 24.97L46.7509 19.4973L42.346 14.0803C42.3349 14.058 42.3349 14.0469 42.3349 14.0247C42.346 14.0135 42.3572 14.0024 42.3683 14.0024H45.8833C45.8944 14.0024 45.9055 14.0135 45.9166 14.0247L48.5751 17.3172L51.2781 14.0247C51.2892 14.0135 51.3003 14.0024 51.3115 14.0024H54.1702C54.1813 14.0024 54.2035 14.0135 54.2147 14.0247C54.2258 14.0469 54.2147 14.058 54.2035 14.0803L50.0323 19.0969L54.8153 24.97C54.8264 24.9812 54.8264 25.0034 54.8264 25.0145C54.8042 25.0368 54.7931 25.0368 54.7708 25.0368Z" fill="#191825" fill-opacity="0.5"/>
<path d="M73.7806 15.9379C72.2233 15.9379 71.1666 16.8834 70.8552 18.5185H76.1499V18.4073C76.1499 17.1058 75.1822 15.9379 73.7806 15.9379ZM78.8751 20.2092C78.864 20.2204 78.8529 20.2315 78.8417 20.2315H70.7996C70.9664 22.1002 72.1788 23.1681 74.1477 23.1681C75.3601 23.1681 76.6504 22.7565 78.4635 21.7888C78.4969 21.7665 78.5303 21.7999 78.5303 21.8333V24.3026C78.5303 24.3249 78.5192 24.336 78.508 24.336C76.8173 25.0479 75.1154 25.5373 73.7806 25.5373C70.3213 25.5373 67.8074 23.0123 67.8074 19.5418C67.8074 16.0714 70.3213 13.5464 73.7806 13.5464C76.9396 13.5464 78.9641 15.6709 78.9641 18.5964C78.9641 19.0747 78.8862 20.1759 78.8751 20.2092Z" fill="#191825" fill-opacity="0.5"/>
<path d="M95.2039 11.711C94.214 11.711 93.4131 10.9212 93.4131 9.95352C93.4131 8.95242 94.214 8.14041 95.2039 8.14041C96.1939 8.14041 96.9948 8.95242 96.9948 9.95352C96.9948 10.9212 96.1939 11.711 95.2039 11.711ZM93.7579 25.0368C93.7245 25.0368 93.7134 25.0257 93.7134 24.9923V14.0358C93.7134 14.0135 93.7245 13.9913 93.7468 13.9913H96.65C96.6722 13.9913 96.6834 14.0135 96.6834 14.0358V24.9923C96.6834 25.0257 96.6611 25.0368 96.6389 25.0368H93.7579Z" fill="#191825" fill-opacity="0.5"/>
<path d="M60.0874 23.3905C59.5646 23.3905 59.0307 23.3127 58.4078 23.1569L58.4189 16.127C59.142 15.8934 59.7649 15.7933 60.3878 15.7933C62.4011 15.7933 63.747 17.2727 63.747 19.4862C63.747 21.8555 62.3121 23.3905 60.0874 23.3905ZM60.8772 13.5464C60.0541 13.5464 59.2309 13.691 58.3633 13.9913H55.4713C55.449 13.9913 55.4268 14.0135 55.4268 14.0358V32C56.2944 31.8776 57.3622 31.5662 58.4078 30.832V25.3705C59.1197 25.4706 59.7092 25.5373 60.2765 25.5373C64.2364 25.5373 66.7948 23.1681 66.7948 19.4973C66.7948 15.9935 64.3588 13.5464 60.8772 13.5464Z" fill="#191825" fill-opacity="0.5"/>
<path d="M88.4744 22.4784C87.5734 22.9567 86.7614 23.1792 86.005 23.1792C84.2142 23.1792 83.1352 21.9111 83.1352 19.7865C83.1352 17.3394 84.5034 15.7488 86.6279 15.7488C87.2175 15.7488 87.7848 15.8934 88.4744 16.2048V22.4784ZM88.4744 8.19601V13.9245C87.629 13.6798 86.8838 13.5686 86.1274 13.5686C82.6791 13.5686 80.0874 16.1603 80.0874 19.6086C80.0874 23.0346 82.3788 25.5262 85.5378 25.5262C86.6279 25.5262 87.6513 25.2481 88.8526 24.6363V25.6263C89.6424 25.4706 90.5545 25.1591 91.4555 24.514V7.01694C90.5767 7.13929 89.5311 7.43962 88.4744 8.19601Z" fill="#191825" fill-opacity="0.5"/>
<path d="M106.75 22.4562C105.872 22.9567 105.126 23.2014 104.459 23.2014C102.535 23.2014 101.389 21.9334 101.389 19.8088C101.389 17.395 102.746 15.771 104.759 15.771C105.293 15.771 105.949 15.9824 106.75 16.4051V22.4562ZM109.731 13.8578C109.731 13.7911 109.676 13.7355 109.609 13.7355H107.262C107.195 13.7355 107.128 13.7911 107.128 13.8578V14.2583H107.073C105.994 13.7799 105.06 13.5686 104.159 13.5686C100.911 13.5686 98.3633 16.2605 98.3633 19.7087C98.3633 23.1903 100.644 25.5262 104.036 25.5262C104.937 25.5262 106.105 25.4595 107.195 24.2136V25.6263C107.963 25.4595 108.875 25.1369 109.731 24.514V13.8578Z" fill="#191825" fill-opacity="0.5"/>
<path d="M34.2925 22.3004H41.5783C41.467 23.1124 41.189 24.069 40.5661 25.0368H32.9911C32.0678 25.0368 31.3003 24.3138 31.2113 23.4128C31.2113 23.4016 31.2002 23.3905 31.2002 23.3683V8.9969C31.2002 8.98578 31.2113 8.97466 31.2113 8.96353C31.3003 8.05142 32.0678 7.3284 32.9911 7.3284H41.5672C41.4559 8.1404 41.1778 9.11926 40.5438 10.087H34.2925V14.0024H40.4882C40.5104 14.0024 40.5327 14.0247 40.5327 14.0469V16.761C40.5327 16.7832 40.5104 16.8055 40.4882 16.8055H34.2925V22.3004Z" fill="#191825" fill-opacity="0.5"/>
<path d="M25.1716 25.2703C24.4486 25.2703 24.0037 24.7031 24.0037 24.0134C24.0037 23.2793 24.5154 22.7565 25.1716 22.7565C25.8168 22.7565 26.3285 23.2681 26.3285 24.0134C26.3285 24.7587 25.8168 25.2703 25.1716 25.2703ZM25.1716 22.623C24.4375 22.623 23.8035 23.1792 23.8035 24.0134C23.8035 24.8032 24.3708 25.4038 25.1716 25.4038C25.8947 25.4038 26.5287 24.8477 26.5287 24.0134C26.5287 23.1792 25.9058 22.623 25.1716 22.623Z" fill="#191825" fill-opacity="0.5"/>
<path d="M24.8486 23.9022V23.3905H25.1934C25.3714 23.3905 25.5716 23.4128 25.5716 23.6241C25.5716 23.8799 25.3825 23.8911 25.1712 23.8911C25.1601 23.9022 24.8486 23.9022 24.8486 23.9022ZM25.8163 23.6575C25.8163 23.3238 25.6161 23.1792 25.2157 23.1792H24.5928V24.8254H24.8597V24.1247H25.1156L25.5383 24.8254H25.8497L25.3937 24.1024C25.6384 24.0802 25.8163 23.9578 25.8163 23.6575Z" fill="#191825" fill-opacity="0.5"/>
<path d="M112.134 15.8155C111.411 15.8155 110.966 15.2482 110.966 14.5586C110.966 13.8244 111.478 13.3016 112.134 13.3016C112.779 13.3016 113.291 13.8133 113.291 14.5586C113.291 15.3038 112.779 15.8155 112.134 15.8155ZM112.134 13.1793C111.4 13.1793 110.766 13.7354 110.766 14.5697C110.766 15.3594 111.333 15.9601 112.134 15.9601C112.857 15.9601 113.491 15.4039 113.491 14.5697C113.491 13.7243 112.857 13.1793 112.134 13.1793Z" fill="#191825" fill-opacity="0.5"/>
<path d="M111.8 14.4473V13.9468H112.145C112.323 13.9468 112.523 13.969 112.523 14.1804C112.523 14.4362 112.334 14.4473 112.123 14.4473H111.8ZM112.779 14.2137C112.779 13.88 112.579 13.7354 112.178 13.7354H111.555V15.3817H111.822V14.6809H112.078L112.501 15.3817H112.812L112.356 14.6587C112.59 14.6364 112.779 14.5141 112.779 14.2137Z" fill="#191825" fill-opacity="0.5"/>
<path d="M15.7722 10.0759L15.2494 8.58534L10.7555 2.58985L11.5564 2.38963L19.2871 9.07476L23.8366 7.77333C24.3705 7.63985 24.9823 7.60648 25.4384 7.60648C24.0146 4.52531 21.3895 1.98919 17.9412 0.765622C11.1226 -1.67039 3.61434 1.9002 1.18945 8.72994C0.433065 10.8434 0.266215 13.0236 0.577668 15.0925L11.4674 11.3106L15.7722 10.0759Z" fill="#191825" fill-opacity="0.5"/>
<path d="M25.9278 8.78558C25.5274 9.04142 24.9379 9.38624 24.3595 9.57534L19.7989 10.8768L16.7622 20.6431L15.9724 20.8989L16.6176 13.4463L16.2617 11.9001L11.9903 13.1237L0.688965 15.7599C1.58996 20.098 4.66 23.8911 9.14271 25.4817C15.9724 27.9177 23.4696 24.3472 25.9056 17.5174C26.9512 14.592 26.8845 11.5219 25.9278 8.78558Z" fill="#191825" fill-opacity="0.5"/>
<path d="M16.2506 11.889L16.6065 13.4351L15.9614 20.8878L16.7511 20.6319L19.7878 10.8656L24.3484 9.56419C24.9268 9.3751 25.5163 9.0414 25.9168 8.77444C25.7722 8.374 25.6164 7.98468 25.4385 7.59536C24.9713 7.59536 24.3706 7.61761 23.8367 7.76221L19.2872 9.06364L11.5565 2.37851L10.7556 2.57873L15.2383 8.57422L15.7611 10.0647L11.4564 11.2994L0.56665 15.0814C0.60002 15.3038 0.644514 15.5374 0.689007 15.7599L11.9792 13.1014L16.2506 11.889Z" fill="white"/>
</svg>
